<?xml version="1.0" encoding="UTF-8" standalone="no"?>
<!-- Created with Inkscape (http://www.inkscape.org/) -->

<svg
   xmlns:dc="http://purl.org/dc/elements/1.1/"
   xmlns:cc="http://creativecommons.org/ns#"
   xmlns:rdf="http://www.w3.org/1999/02/22-rdf-syntax-ns#"
   xmlns:svg="http://www.w3.org/2000/svg"
   xmlns="http://www.w3.org/2000/svg"
   xmlns:sodipodi="http://sodipodi.sourceforge.net/DTD/sodipodi-0.dtd"
   xmlns:inkscape="http://www.inkscape.org/namespaces/inkscape"
   width="174.97778mm"
   height="90.311111mm"
   viewBox="0 0 620.00002 320"
   id="svg4575"
   version="1.1"
   inkscape:version="0.91 r13725"
   sodipodi:docname="PixelartHelicopter.svg">
  <defs
     id="defs4577" />
  <sodipodi:namedview
     id="base"
     pagecolor="#ffffff"
     bordercolor="#666666"
     borderopacity="1.0"
     inkscape:pageopacity="0.0"
     inkscape:pageshadow="2"
     inkscape:zoom="1.6758064"
     inkscape:cx="310.00001"
     inkscape:cy="160"
     inkscape:document-units="px"
     inkscape:current-layer="layer1"
     showgrid="false"
     fit-margin-top="0"
     fit-margin-left="0"
     fit-margin-right="0"
     fit-margin-bottom="0"
     inkscape:window-width="1600"
     inkscape:window-height="837"
     inkscape:window-x="-8"
     inkscape:window-y="-8"
     inkscape:window-maximized="1" />
  <metadata
     id="metadata4580">
    <rdf:RDF>
      <cc:Work
         rdf:about="">
        <dc:format>image/svg+xml</dc:format>
        <dc:type
           rdf:resource="http://purl.org/dc/dcmitype/StillImage" />
        <dc:title></dc:title>
      </cc:Work>
    </rdf:RDF>
  </metadata>
  <g
     inkscape:label="Layer 1"
     inkscape:groupmode="layer"
     id="layer1"
     transform="translate(-72.857186,-320.93364)">
    <g
       transform="translate(-47.142814,-71.427694)"
       id="g5123">
      <path
         inkscape:connector-curvature="0"
         id="rect4493"
         d="m 260,532.36133 0,40 -120,0 0,60 420,0 0,-40 20,0 0,-20 100,0 0,-40 -420,0 z"
         style="opacity:1;fill:#d95763;fill-opacity:1;stroke:none;stroke-width:1;stroke-miterlimit:4;stroke-dasharray:none;stroke-dashoffset:0;stroke-opacity:1" />
      <path
         inkscape:connector-curvature="0"
         id="rect4487"
         d="m 340,452.36133 0,20 60,0 0,-20 -60,0 z m -100,40 0,40 340,0 0,-40 -340,0 z"
         style="opacity:1;fill:#fbf236;fill-opacity:1;stroke:none;stroke-width:1;stroke-miterlimit:4;stroke-dasharray:none;stroke-dashoffset:0;stroke-opacity:1" />
      <path
         inkscape:connector-curvature="0"
         id="rect4313"
         d="m 340,432.36133 0,20 20,0 20,0 20,0 0,-20 -20,0 -20,0 -20,0 z m 60,20 0,20 -20,0 -20,0 -20,0 0,-20 -20,0 0,20 -20,0 -20,0 -20,0 -20,0 0,20 20,0 20,0 20,0 20,0 20,0 20,0 20,0 20,0 20,0 20,0 20,0 20,0 20,0 20,0 0,-20 -20,0 -20,0 -20,0 -20,0 -20,0 0,-20 -20,0 z m 120,40 0,20 20,0 20,0 20,0 0,-20 -20,0 -20,0 -20,0 z m -380,80 0,20 20,0 0,-20 -20,0 z m 0,20 -20,0 0,20 0,20 20,0 0,-20 0,-20 z m 0,40 0,20 20,0 20,0 0,-20 -20,0 -20,0 z"
         style="opacity:1;fill:#df7126;fill-opacity:1;stroke:none;stroke-width:1;stroke-miterlimit:4;stroke-dasharray:none;stroke-dashoffset:0;stroke-opacity:1" />
      <path
         inkscape:connector-curvature="0"
         id="rect4323"
         d="m 220,492.36133 0,20 20,0 0,20 0,20 -20,0 -20,0 0,-20 -20,0 0,20 -20,0 0,20 20,0 20,0 20,0 20,0 20,0 0,-20 0,-20 0,-20 0,-20 -20,0 -20,0 z m -20,40 20,0 0,-20 -20,0 0,20 z m 100,-20 0,20 0,20 0,20 20,0 20,0 20,0 0,-20 0,-20 0,-20 -20,0 -20,0 -20,0 z m 100,0 0,20 0,20 0,20 20,0 20,0 20,0 0,-20 0,-20 0,-20 -20,0 -20,0 -20,0 z m -80,20 20,0 0,20 -20,0 0,-20 z m 100,0 20,0 0,20 -20,0 0,-20 z m -180,120 0,20 0,20 -20,0 -20,0 0,20 20,0 20,0 20,0 20,0 20,0 60,0 20,0 20,0 20,0 20,0 20,0 20,0 0,-20 -20,0 -20,0 0,-20 0,-20 -20,0 0,20 0,20 -20,0 -20,0 -20,0 -60,0 -20,0 -20,0 0,-20 0,-20 -20,0 z m 240,40 20,0 0,-20 -20,0 0,20 z m -280,0 0,-20 -20,0 0,20 20,0 z"
         style="opacity:1;fill:#595652;fill-opacity:1;stroke:none;stroke-width:1;stroke-miterlimit:4;stroke-dasharray:none;stroke-dashoffset:0;stroke-opacity:1" />
      <path
         inkscape:connector-curvature="0"
         id="rect4345"
         d="m 220,512.36133 0,20 -20,0 0,20 20,0 20,0 0,-20 0,-20 -20,0 z m 100,20 0,20 20,0 0,-20 -20,0 z m 100,0 0,20 20,0 0,-20 -20,0 z"
         style="opacity:1;fill:#847e87;fill-opacity:1;stroke:none;stroke-width:1;stroke-miterlimit:4;stroke-dasharray:none;stroke-dashoffset:0;stroke-opacity:1" />
      <path
         inkscape:connector-curvature="0"
         id="rect4431"
         d="m 680,452.36133 0,20 20,0 20,0 0,-20 -20,0 -20,0 z m 40,20 0,20 0,20 20,0 0,-20 0,-20 -20,0 z m 0,40 -20,0 -20,0 0,-20 0,-20 -20,0 0,20 0,20 -20,0 -20,0 -20,0 -20,0 0,20 20,0 20,0 20,0 20,0 20,0 0,20 20,0 0,-20 20,0 0,-20 z m -40,40 -20,0 -20,0 0,20 20,0 20,0 0,-20 z m -40,20 -20,0 -20,0 -20,0 0,20 20,0 20,0 20,0 0,-20 z m -60,20 -20,0 0,20 20,0 0,-20 z m -20,20 -20,0 0,20 20,0 0,-20 z m -20,20 -20,0 -20,0 -20,0 -20,0 -260,0 -20,0 0,20 20,0 260,0 20,0 20,0 20,0 20,0 0,-20 z"
         style="opacity:1;fill:#ac3232;fill-opacity:1;stroke:none;stroke-width:1;stroke-miterlimit:4;stroke-dasharray:none;stroke-dashoffset:0;stroke-opacity:1" />
      <path
         style="opacity:1;fill:#9badb7;fill-opacity:1;stroke:none;stroke-width:1;stroke-miterlimit:4;stroke-dasharray:none;stroke-dashoffset:0;stroke-opacity:1"
         d="m 680,472.36218 40,0 0,40 -40,0 z"
         id="rect4497"
         inkscape:connector-curvature="0" />
      <path
         inkscape:connector-curvature="0"
         id="rect4499"
         d="m 120,392.36133 0,20 240,0 0,20 20,0 0,-20 240,0 0,-20 -500,0 z"
         style="opacity:1;fill:#222034;fill-opacity:1;stroke:none;stroke-width:1;stroke-miterlimit:4;stroke-dasharray:none;stroke-dashoffset:0;stroke-opacity:1" />
    </g>
  </g>
</svg>
